/* XPM */
static char *result[] = {
/* columns rows colors chars-per-pixel */
"64 64 16 1 ",
"  c gray8",
". c #5E0D00",
"X c #722800",
"o c #7B2F00",
"O c #0D2B45",
"+ c #203C56",
"@ c #544E68",
"# c #8C3D00",
"$ c #924200",
"% c #B16000",
"& c #BE6529",
"* c #C67C02",
"= c #8D697A",
"- c #FFBF17",
"; c #C5C5C5",
": c white",
/* pixels */
"============+O+@OO@++O+=========++OOO+============+O+=+OOOOO+===",
"===+=========OO+OO+=======@=====================================",
"===@@========OO@OO=======@@==@===@@@@===@@@@@@@====@============",
"=+@@@@@@@@@@=+O+OO=@@@@@@@@@@@@@@@@@@@@@@@@@@@@@@@@@@@@@@@@@@@@@",
"@@@@@@@@@@@@==OOOO=@@@@O@@@@@@@@@@@@@@@@@@@@@@@@@@@@@@@@@@@@@@@@",
"@@@@@@@@@@@@@=O+OO=@@@@+@@@@@@@@@+@+@@@@@@@@@@@@@@@@@@@@@@@@@@@@",
"@@@@@@@O@@@@@=O+OO=@@@@@@@@@@@@@++=@@@@@@@@@@@@@@+@@@@@@@@@+@@@@",
"@@@@@@@+@@@@==OOOO==@@@@@@@@@@++O+@@@@@@@@@@@@@@@+@@@@@@@@+@@@@@",
"@@@@@@@@@@@@==OOOO==@@@@@@@@+OOO+=@@@@O@@@@@@@@@@=@@@@@@@@+=@@@@",
"@@@@@@@@@@@@@=OOOO@=@@@@@@@+====+@@@@@+@@@@@@@@@@@@@@@@@@@@=@@@@",
"@@@@@@@@@@@@@=OOOO@=@@@@@@@@@@@@@@@@@@@@@@@@@@@@@@@@@@@@@@=@@@@@",
"@@@@@@@@@@@@==OO+O==@@@@@@@@@@@@@@@@@@@@@@@@@@@@@@@@@@@@@@@@@@@@",
"@@@@@@@@@@@@==OOOO==@@+@@@@@@@@@@@@@@@@@@@@++@@@@@@@@@@@@@@@@@@@",
"@@@@@++@@@@@==OOOO==@@@+@@@@@@@@@@@@@@@@@@@@@@@@@@@@@@@@@@@@@@@@",
"@@@@@@@++++==+O+OO=+++++++@@@@@+++++++@@@@@@@@@@@@++++@@@++@@@+@",
"@+@+++++++++=OO+OOO++++++@++++++++++++++++@@++++++++++++++++++++",
"++++++++++OOOOOOOOO++OO++++O++++OO+O+++++++++++++OOO+O++++++++++",
"+OOOOOOOOOOOO+OOOOOOOOOOOOOOOOOOOOOOOOOOOOOOOOOOOOOOOOOOOOOOOOOO",
"OOOOOOOOOOOO+++OOOOOOOOOOOOOOOOOOOOOOOOOOOOOOOOOOOOOOOOOOOOOOOOO",
"OOOO+++OOOO++++++O+++++++@O+@OOO++OO+++OO+++++OOOOOOOOOOO++OOOOO",
"OOOOOO++++OOOO++OOOO+OOOOOOO++OOOOOOO+++OOOOOOOOOOOOOOOOOOOOOOOO",
"O========================+OO@+OO+@===========+O+====++OOOOOOOO+=",
"========+OO==@=@==@=======+OO+O+@=====@===@===+=======+O+=======",
"====@@@@=OOO@@@@@@@@@=@====O@OO@=@==@@@@@@@@@@@@==@@@=====@@=@==",
"=@@@=@@@@=+OO@@@@@@@@@@@@=@O@OO@=@@@@@@@@@@@@@@@@@@@@@@@@@@@@@@@",
"@@@@@@@@@@=+O+@@@@@@@@@@@@=OOOO=@@@@@@@@@@@@@@@@@@@@@@@@@@@@@@@@",
"@@@@@@@@@@@=++O@@@@@@@@@@@=O+OO=@@@@@@@@@@@@@@@@OO@@@@@@@@@@@@@@",
"@@@@@@@@@@@@=++@@@@@@@@@@==O+OO=@@@@@@@@@@@@@@@@++OOO@@@@@@@@@@@",
"@++@@@@@@@@@@@++@@@@@@@@@==O+OO==@@@@@@@@@@@@@@@@=++++@@@@@@@@@@",
"@@@@@@@@@@@@@@=++@@@@@@@@@=OOOO==@@@@@@@+++@@@@@@@@@@@@@@@@@@@@@",
"@@@@@@@@@@@@@@@@+@..@@@@@==O@OO@=@@@@@@@=+++@@@@@@@@@@@@@@@@@@@@",
"@@@@@@@@@@@@@@=++.**.@@@@@=O+OO==@@@@@@@@===+@@@@@@@@@@@@+@@@@@@",
"@@@@@@@@@@@@@@@@.#%*.@@@@@=O+OO=@@@@@@@@@@@@@@@@@@+O@@@@@@+@@@@@",
"@@@@@@@@@@@@@@@..%**.@@@@==O+OO==@@@@@@@@@@@@@@@@@@@@@@@@@@@@@@@",
"@@@@@@@@@@@@@..o%%%*.++@@==OOOO==@@+@@@@@@@@@@@@@@@@@@@@@@@@@@@@",
"@@@++@+++@@@.o%%%%%*.+++++=OOOO=++++@@@@@@@@@@@++++@@@@@@++++@@@",
"@+++++++++@.o%%%%%*#.+++++OO+OO++++++++++++++..@@++++@++++++++++",
"+++++O++++++..%%%%*.+++++OO++OOOOOO+++++OO+++.#.+++++++++OOOOOOO",
"OOOOOOOOOOO oo%%*#.OOOOOOOO+OOOOOOOOOOOOOOOO.##.OOOOOOOOOOOOOOOO",
"OOOOOOOOO  o%%%*#.OOOOOOO++++OOOOOOOOOOO..O...##.OOOOOOOOOOOO+OO",
"O+++O++O $$$%%%*.++OO+++OO+O++OOOOOOOOOO.%..##....+OOOOO++OO+OOO",
"OOOOOOO+O %%%%%.OOOOOOOOOOOOOOOOOOOOOOOO.%%#.%%%#..OOOOOOOOOOOOO",
"OO+@====== $%%%.@++@==++=====+O+=====...#::%##%%%%#.++O+OOO+@===",
"=========  $%%%.===========....==@==.XX.#::;%%%***%#.===========",
"====@@@= o$%%%%#.@@===......XXX..@..X#X.#;;$%%%%***%.==@@=@===@=",
"=@@@@@@+  %%%%%%.@@@@.X##XX.X#XXX..XX##X.#$%%%%%%**%#.@@@@@@@@@@",
"@@@@@@@@@@ o%%%#%#...XXX####.##XXXX..%#XX#%%%%%  %%%#.@@@@@@@@@@",
"@@@@@@@@@@@ o%%##%#.X#%XX%%####XX##X%%######%%. -.%%$.@@@@@@@@@@",
"@@@@@@@@@@ oo$%%###X#%%%%***%%#X##X#%%%$##%%%%%.&.#%$$o@@@@@@@@@",
"@@@@@@@@@@@  o%$%X###%%%%****%%#%%%XX#%%$##oo$%%%%%%$..+@@@@@@@@",
"@@@@@@++++ ooo$o$XX#%%%%%%%***%%%%%%##%%%%%%$o$$%%%$$o +@@@@@@@@",
"@@@@@@@+OO    ooo$X#%%%%%%%%%%%%%%%%#%%%%%%%o%%%%%$$o @@@@@@@@@@",
"@@@@@+@+==++@ ooooo#%%%%%%%%%%%%%%%%%%%%%%%o$$$o$oo  @@@@@@@@@@@",
"@@@@@=@@+@@+ o  o o$$%%%%%%%%%%%%%%%%%%%%%%o$$o    @@@@@@@@@@@@@",
"@@@@@@@@@@@@@  oo o$$%%%%%$%%%%%%%%%%%%%%$%%oo O==@@@@@@@@@@@@@@",
"@@@@@@@@@@@@@@@ oo o$$%%%%o$$%%%%%%%%%%%%o$% o O==@@@@@@@@@@@@@@",
"@@@@@@@@@@@@@@+@ o o$%%%%$oo$$%%$$o$%%%%%oo$  OO==@@@@@@@@@@@@@@",
"@@@@+++@@@@@+++++   $%%%$ ooo$$%$$o$%%$$.o o +OO=++@++@@+++@+++@",
"@+++++++++++++++ o $%%%   oo o $ o $%%$. o  OOOO++++++++++++++++",
"+++OOO++++++++++ oo $%%% oo    o  o$%%.   o.OOOOOO++++++++O+++++",
"+OOOOOOOOOOOOOOO %%o $%%%  OOOO  o$%%.O oooo..OOOOOOOOOOOOOOOOOO",
"OOOOOOOOOOOOOOOO %o% o$$$$oOOOOO o$$$%oO oooo$.OOOOOO+OOOOOOOOOO",
"OO++OO++++++O+OO ooo% $$$$%oOOOO+ $$$$%oO ooo$.OOOOO+OOOOO++++OO",
"OOOOOOOOOOOOOO@@OOOOOO $%%%oOOOOOO $%%%o+++OOOOOOOOOOOOOOOOOOOOO"
};
