/* XPM */
static char *result[] = {
/* columns rows colors chars-per-pixel */
"64 64 6 1 ",
"  c gray13",
". c #0D2B45",
"X c #203C56",
"o c #544E68",
"O c #8D697A",
"+ c #EEEEEE",
/* pixels */
"OOOOOOOOOOOOX.Xo..oXX.    +         .XOOOOOOOOOOOOX.XOX.....XOOO",
"OOOXOOOOOOOOO..X..XO      +         OOOOOOOOOOOOOOOOOOOOOOOOOOOO",
"OOOooOOOOOOOO..o..OO     +          oOOOoooooooOOOOoOOOO    +OOO",
"OXooooooooooOX.X..Oo     +          oooooooooooooooooo     + ooo",
"ooooooooooooO+         ++           oooooooooooooooo       + ooo",
"o            ++       +          XoXoooo      +           +  ooo",
"oo          +  +      +          XOooooo       +         +   ooo",
"oooo       +    ++    +          +     +        +       +   oooo",
"oooo      + .     +  +           +  +   +       +      +    oooo",
"ooooooooo+  ...    ++            +  +   +        +    +     oooo",
"ooooooooooo ...  ++ +           +   +    +        +  +      oooo",
"oooooooooooo...++    +          +  +     +         ++       oooo",
"oooooooooooo....      +        +   +      ++      ++++     ooooo",
"oooooXXooooo....       +      +   +         +    +    ++   ooooo",
"ooooooooooooo...        +   ++    +          +  +       ++XoooXo",
"oXoXXXXoooooo...        +  +      +           +++     XXXXXXXXXX",
"XXXXXXXoooooo...         ++       +           ++++   .XXXXXXXXXX",
"X......oooooo...        + +       +         ++    +   ..........",
"................      ++  +       +        +       +++..........",
"....XXX.........    ++     +     + +     ++            ..XX.....",
"......XXX...... ++++       +     + +    +               ........",
".OOOOOOOO..... +            +    +  +  +                 .....XO",
"OOOOOOOOX.....              +   ++   ++                    OOOOO",
"OOOOooooO.....              +   ++   +++                   oOoOO",
"OoooOoooo.....               +  ++  +   +                   oooo",
"ooooooooo.....++++++++++++++++++++++++   ++          +++++++oooo",
"ooooooooo.....++            +++  +    +++++++++++++++    ++ oooo",
"ooooooooo....   ++             +++     +              +++   oooo",
"oXXooooo+....+    ++        + ++ +    +            +++     +oooo",
"oooo    +    +      +        +  ++   +            +       +  ooo",
"oooo    +    +       +     ++ + ++  +           ++        +  ooo",
"oooo    +    +        +   +    + + +          ++         +   ooo",
"oooo   +     +        +  +      + +         ++           +   ooo",
"oooo ++      +        + +       +++       ++             +    oo",
"oooo+        +        ++        +  +    ++               +    oo",
"oooX         +        ++        +  +  ++        ..      +      o",
"oXXX         +       + +       +   + +          ...     +      X",
"XXXX         +       + +       +    ++          ......  +      .",
"....         +      +  +       +    ++         .......  +      .",
"....++       ..     +  +       +   + +         .......  +      .",
".XXX  +     ...    +   +       +  +   +         ....... +      .",
"...    + ......   +    +       +  +   +     ++++.........      .",
"..X    + ......   +    + .     + +     +  ++   ........X...Xo  O",
"OOO     .......   +    +  .   + +      + +     .....OOOOOOOOOOOO",
"OOO     .......++++    + ...  + +       ++      ....OOOooOoOOOoO",
"Ooo    .......o  ++   +. ....o+ +       +       ...ooooooooooooo",
"ooo    ..o....o  + +    .....o +       + +      ..oooooooooooooo",
"ooo    ooo....  +   + ........o+      +   +      .oooooooooooooo",
"oooo   ooo....  +    +........oo      +    +     Ooooooooooooooo",
"ooooo  oooo    +     +.........oo    +      +    OoooooXoooooooo",
"oooooo  XXo   +       .........o.   +        +    oooooXoooooooo",
"oooooooX..X   +       .........X.X +         +    oooooooooooooo",
"oooooXoXOOXX ++++    o..........ooo           ++   ooooooooooooo",
"oooooOooXooX++   +   o.........Oooooo           +  ooooooooooooo",
"oooooooooooo+     + .........ooooooXooo          +   ooooooooooo",
"oooooooooooo       +.........oooooooXooo++++++++  +   oooooooooo",
"ooooooooooooo       .........ooooooooooXooOO    ++++++  oooooooo",
"ooooXXXoooooX       .........XXXXXoXXXXXXXOO.X       +++++XoXXXo",
"oXXXXXXXXXXXXXX    o........oXXXXXXXXXXXXXXO....      ++    XXXX",
"XXX...XXXXXXXXXX...XX.......XXX.XXXXXXXXXX........X     +   XXXX",
"X............................................X.......    +    ..",
".....................................X.....XXX.......X.   +   ..",
"..XX..XXXXXX.X...X.....oXX.X....XXX.X.....XXXo......X.....XXXX..",
"..............oo...........X..........XXXXX....................."
};
