/* XPM */
static char *result[] = {
/* columns rows colors chars-per-pixel */
"64 64 51 1 ",
"  c #4A2716",
". c #4A2717",
"X c #452912",
"o c #452913",
"O c #452A12",
"+ c #452A13",
"@ c #4A2816",
"# c #4B2816",
"$ c #4B2817",
"% c #572F19",
"& c #572F1A",
"* c #5F341C",
"= c #60351C",
"- c #663A1E",
"; c #0D2B45",
": c #203C56",
"> c #715C4B",
", c #715D4B",
"< c #715D4C",
"1 c #544E68",
"2 c #8A4B2A",
"3 c #8A4A2B",
"4 c #8B4A2B",
"5 c #8A4B2B",
"6 c #8B4B2B",
"7 c #9C602C",
"8 c #B66F34",
"9 c #B97235",
"0 c #B97335",
"q c #CA7A3A",
"w c #D17F3B",
"e c #886D5E",
"r c #896D5F",
"t c #8D697A",
"y c #D8823D",
"u c #D9823D",
"i c #D8833D",
"p c #D9833D",
"a c #D8823E",
"s c #D9823E",
"d c #D8833E",
"f c #D9833E",
"g c #E28B40",
"h c #E58F41",
"j c #E68F41",
"k c #E78F41",
"l c #E78F42",
"z c #E69041",
"x c #E69042",
"c c #E79042",
"v c #E2A777",
/* pixels */
"tttttttttttt:;:1;;1::;:ttttttttt::;;;:tttttttttttt:;:t:;;;;;:ttt",
"ttt:ttttttttt;;:;;:ttttttt1ttttttttttttttttttttttttttttttttttttt",
"ttt11tttttttt;;1;;ttttttt11tt1ttt1111ttt1111111tttt1tttttttttttt",
"t:1111111111t:;:;;t111111111111111111111111111111111111111111111",
"111111111111tt;;;;t1111;1111111111111111111111111111111111111111",
"1111111111111t;:;;t1111:111111111:1:1111111111111111111111111111",
"1111111;11111t;:;;t1111111111111::t11111111111111:111111111:1111",
"1111111:1111tt;;;;tt1111111111::;:111111111111111:11111111:11111",
"111111111111tt;;;;tt11111111:;;;:t1111;1111111111t11111111:t1111",
"1111111111111t;;;;1t1111111:tttt:11111:11111111111111111111t1111",
"1111111111111t;;;;1t11111111111111111111111111111111111111t11111",
"111111111111tt;;:;tt11111111111111111111111111111111111111111111",
"111111111111tt;;;;tt11:11111111111111111111::1111111111111111111",
"11111::11111tt;;;;tt111:1111111111111111111111111111111111111111",
"1111111::::tt:;:;;t:::::::11111:::::::111111111111::::111::111:1",
"1:1:::::::::t;;:;;;::::sffsffsffpyf555@##:11::::::::::::::::::::",
"::::::::::;;;;;;;;;::;;fffffffffpyf666#$$::::::::;;;:;::::::::::",
":;;;;;;;;;;;;:;;;;;;;;;fffffffffpyf666#$$;;;;;;;;;;;;;;;;;;;;;;;",
";;;;;;;;;;;;:::;;;fffff664$$$fffpyffffupfffffp;;;;;;;;;;;;;;;;;;",
";;;;:::;;;;::::::;fffff664$$$fffpyffffupfffffp;;;;;;;;;;;::;;;;;",
";;;;;;::::;;;;:vvvffgggqqq888ggggggfffggggggfpere;;;;;;;;;;;;;;;",
";ttttttttttttttfffffjccccccccccccxcfffccccccff&&&ttt::;;;;;;;;:t",
"tttttttt:;;tt1tsffffjccccccccccccxcfffccccccff%&&ttttt:;:ttttttt",
"tttt1111t;;;fffkcccc=&&cccccc666$ $ccc566cccffcccfff1ttttt11t1tt",
"t111t1111t:;fffccccc=&&cccccc666$ $ccc566cccffcccfff111111111111",
"1111111111t:affccccc=&%cccccc235$.$ccc655cccffcccfff111111111111",
"11111111111t666%&&ffjccffffff&&&$ $ccc%%&fffcccccfff111111111111",
"111111111111666&&&ffjccffffff&&&$ $ccc&&&fffcccccfff;11111111111",
"1::111111111666&&&ffjccffffff&&&$ $ccc&&&fffcccccfff::1111111111",
"111111111111fffkccccccc662cccfffcxccccfffccccc665fff111111111111",
"111111111111pfslccccccc665cccfffcxccccidfccccc665fff111111111111",
"111111111111fffcccccccc665cccfffcxccccfffccccc665fff11111:111111",
"111111111111yppcccppjcc$$$cccccccxcfffiifcccficccfff111111:11111",
"111111111111yyyjzzyyhxx   xxxxxxxxxffffffxxxffxxxfff111111111111",
"111111111111fffcccffjcc$$$cccccccxcffffffcccffcccfff111111111111",
"111::1:::111999ffffffffcccfff666$ $cccccc&&&ccfff00011111::::111",
"1:::::::::1:999ffffffffcccfff666$ $cccccc&&&ccfff000:1::::::::::",
":::::;::::::999ffffffffcccfff666$ $cccccc&&&ccfff000:::::;;;;;;;",
";;;;;;;;;;;;ooo000uu*&&cccccccccccccccccccccff000ooX;;;;;;;;;;;;",
";;;;;;;;;;;;O++999pp*&%ccccccccccxccccccccccfi000+++;;;;;;;;;:;;",
";:::;::;;;;;+++999ff*&&ccccccccccxccccccccccff000+++;;;;::;;:;;;",
";;;;;;;:;:;;;;;+++99900ffffffffffff$$$fff00000++o;;;;;;;;;;;;;;;",
";;:1tttttttttt:+++99900ffffffffffff$$$fff00000++o:11::;:;;;:1ttt",
"ttttttttt1tttt1<<<77777wwwwwwwwwwww---www77777,>>ttttttttttttttt",
"tttt111t1111111111+++++000000000000000000+++++;;;tttttt11t1ttt1t",
"t111111:1111111111+++++000000000000000000+++++;;:t11111111111111",
"11111111111111111111111++++++++++X++++o++1t1;:;;:111111111111111",
"11111111111111111111111++++++++++X++++o++1tt;:;;1t11111111111111",
"111111111111111111:1111ooooooooooXooooooo11t;;:;1t11111111111111",
"111111111111111111t11111111111111111111:11tt;;;;tt11111:11111111",
"111111::::1111111111111111111111;;111111111t;;;;t111111:11111111",
"1111111:;;:11111111111111111111:;:1111111111;:;;t111111111111111",
"11111:1:tt::111111111111111111:;11111111111t;:;;tt11111111111111",
"11111t11:11:11111111111;;11111tt1111111111tt;:;;1t11111111111111",
"1111111111111111111111::11111111111:111111tt;:;;tt11111111111111",
"111111111111111111111111111111111111:11111tt;:;;tt11111111111111",
"11111111111111:111111111111111111111111:11tt;;;;tt11111111111111",
"1111:::11111:::::111:111:::1::::::1:::::::tt;:;;t::1::11:::1:::1",
"1::::::::::::::::::11:::::::1::::::::::::::t;;;;::::::::::::::::",
":::;;;::::::::::;;;::;;;;;:::::;::::::::::;;;;;;;;::::::::;:::::",
":;;;;;;;;;;;;;;;;;;;;;;;;;;;;;;;;;;;;;;;;;;;;:;;;;;;;;;;;;;;;;;;",
";;;;;;;;;;;;;;;;;;;;;;;;;;;;;;;;;;;;;:;;;;;:::;;;;;;;:;;;;;;;;;;",
";;::;;::::::;:;;;:;;;;;1::;:;;;;:::;:;;;;;:::1;;;;;;:;;;;;::::;;",
";;;;;;;;;;;;;;11;;;;;;;;;;;:;;;;;;;;;;:::::;;;;;;;;;;;;;;;;;;;;;"
};
