/* XPM */
static char *result[] = {
/* columns rows colors chars-per-pixel */
"64 64 5 1 ",
"  c #8D697A",
". c #203C56",
"X c #0D2B45",
"o c #544E68",
"O c white",
/* pixels */
"            .X.oXXo..X.         ..XXX.            .X. .XXXXX.   ",
"   .         XX.XX.       o                                     ",
"   oo        XXoXX       oo  o   oooo   ooooooo    o            ",
" .oooooooooo .X.XX ooooooooooooooooooooooooooooooooooooooooooooo",
"oooooooooooo  XXXX ooooXoooooooooooooooooooooooooooooooooooooooo",
"ooooooooooooo X.XX oooo.ooooooooo.o.oooooooooooooooooooooooooooo",
"oooooooXooooo X.XX ooooooooooooo.. oooooooooooooo.ooooooooo.oooo",
"ooooooo.oooo  XXXX  oooooooooo..X.ooooooooooooooo.oooooooo.ooooo",
"oooooooooooo  XXXX  oooooooo.XXX. ooooXoooooooooo oooooooo. oooo",
"ooooooooooooo XXXXo ooooooo.    .ooooo.oooooooooooooooooooo oooo",
"ooooooooooooo XXXXo oooooooooooooooooooooooooooooooooooooo ooooo",
"oooooooooooo  XX.X  oooooooooooooooooooooooooooooooooooooooooooo",
"oooooooooooo  XXXX  oo.oooooooooooooooooooo..ooooooooooooooooooo",
"ooooo..ooooo  XXXX  ooo.oooooooooooooooooooooooooooooooooooooooo",
"ooooooo....  .X.XX .......ooooo.......oooooooooooo....ooo..ooo.o",
"o.o......... XX.XXX......o................oo....................",
"..........XXXXXXXXX..XX....X....XX.X.............XXX.X..........",
".XXXXXXXXXXXX.XXXXXXXXXXXXXXXXXXXXXXXXXXXXXXXXXXXXXXXXXXXXXXXXXX",
"XXXXXXXXXXXX...XXXXXXXXXXXXXXXXXXXXXXXXXXXXXXXXXXXXXXXXXXXXXXXXX",
"XXXX...XXXX......X.......oX.oXXX..XX...XX.....XXXXXXXXXXX..XXXXX",
"XXXXXX....XXXX..XXXX.XXXXXXX..XXXXXXX...XXXXXXXXXXXXXXXXXXXXXXXX",
"X                        .XXo.XX.o           .X.    ..XXXXXXXX. ",
"        .XX  o o  o       .XX.X.o     o   o   .       .X.       ",
"    oooo XXXooooooooo o    XoXXo o  oooooooooooo  ooo     oo o  ",
" ooo oooo .XXoooooooooooo oXoXXo ooooooooooooooooooooooooooooooo",
"oooooooooo .X.oooooooooooo XXXX oooooooooooooooooooooooooooooooo",
"ooooooooooo ..Xooooooooooo X.XX ooooooooooooooooXXoooooooooooooo",
"oooooooooooo ..oooooooooo  X.XX oooooooooooooooo..XXXooooooooooo",
"o..ooooooooooo..ooooooooo  X.XX  oooooooooooooooo ....oooooooooo",
"oooooooooooooo ..ooooooooo XXXX  ooooooo...ooooooooooooooooooooo",
"oooooooooooooooo.oooooooo  XoXXo ooooooo ...oooooooooooooooooooo",
"oooooooooooooo ..ooooooooo X.XX  oooooooo   .oooooooooooo.oooooo",
"oooooooooooooooo ooooooooo X.XX oooooooooooooooooo.Xoooooo.ooooo",
"ooooooooooooooooooooooooo  X.XX  ooooooooooooooooooooooooooooooo",
"ooooooooooooooooooooo..oo  XXXX  oo.oooooooooooooooooooooooooooo",
"ooo..o...oooooooooo....... XXXX ....ooooooooooo....oooooo....ooo",
"o.........o......o........XX.XX...............ooo....o..........",
".....X...................XX..XXXXXX.....XX...............XXXXXXX",
"XXXXXXXXXXXXXXXXXXXXXXXXXXX.XXXXXXXXXXXXXXXXXXXXXXXXXXXXXXXXXXXX",
"XXXXXXXXXXXXXXXXXXXXXXXXX....XXXXXXXXXXXXXXXXXXXXXXXXXXXXXXXX.XX",
"X...X..XXXXXXXX....XX...XX.X..XXXXXXXXXXX...oXX....XXXXX..XX.XXX",
"XXXXXXX.X.XXXXXXXXXXXXXXXXXXXXXXXXXXXXXXXXXX.oXXXXXXXXXXXXXXXXXX",
"XX.o          . o..o  ..     .X.      ooo..XX.XXX.oo..X.XXX.o   ",
"         o    o                  o         .X.XXX               ",
"    ooo ooooooooooo   oo     o   oooo      .X.XXX      oo o   o ",
" oooooo.oooooooooooooooooooooooooooooooooo oX.XX. oooooooooooooo",
"oooooooooooooooooooooooooooooooooooooooooo oX.XX.ooooooooooooooo",
"oooooooooooooooooooooooooooooooooooooo.ooo  X.XXo oooooooooooooo",
"oooooooooooooooooo.ooooooooooooooooooo..ooo XX.Xo oooooooooooooo",
"oooooooooooooooooo oooooooooooooooooooo.oo  XXXX  ooooo.oooooooo",
"oooooo....ooooooooooooooooooooooXXooooooooo XXXX oooooo.oooooooo",
"ooooooo.XX.oooooooooooooooooooo.X.ooooooooooX.XX ooooooooooooooo",
"ooooo.o.  ..oooooooooooooooooo.Xooooooooooo X.XX  oooooooooooooo",
"ooooo oo.oo.oooooooooooXXooooo  oooooooooo  X.XXo oooooooooooooo",
"oooooooooooooooooooooo..ooooooooooo.oooooo  X.XX  oooooooooooooo",
"oooooooooooooooooooooooooooooooooooo.ooooo  X.XX  oooooooooooooo",
"oooooooooooooo.oooooooooooooooooooooooo.oo  XXXX  oooooooooooooo",
"oooo...ooooo.....ooo.ooo...o......o.......  X.XX ..o..oo...o...o",
"o..................oo.......o.............. XXXX................",
"...XXX..........XXX..XXXXX.....X..........XXXXXXXX........X.....",
".XXXXXXXXXXXXXXXXXXXXXXXXXXXXXXXXXXXXXXXXXXXX.XXXXXXXXXXXXXXXXXX",
"XXXXXXXXXXXXXXXXXXXXXXXXXXXXXXXXXXXXX.XXXXX...XXXXXXX.XXXXXXXXXX",
"XX..XX......X.XXX.XXXXXo..X.XXXX...X.XXXXX...oXXXXXX.XXXXX....XX",
"XXXXXXXXXXXXXXooXXXXXXXXXXX.XXXXXXXXXX.....XXXXXXXXXXXXXXXXXXXXX"
};
