/* XPM */
static char *result[] = {
/* columns rows colors chars-per-pixel */
"64 64 9 1 ",
"  c #8D697A",
". c #FFD4A3",
"X c #FFAA5E",
"o c #D08159",
"O c #544E68",
"+ c #203C56",
"@ c #0D2B45",
"# c #FFECD6",
"$ c white",
/* pixels */
" .XXXXXXXXXo O oO+ OO+OoooooooooooooooooXXXXXXXXXXXXXXXXXXXXXX. ",
"oX...XXXXXXXXOO O+Oooooooo oooooooooooooXXXXXXXXXXXXXXXXXXXXXX. ",
"oXXXX..XXXXX OOoO+ooo             ooooooXXXXXXXXXXXXXXXXXXX...Xo",
"o.XXXXX.oooo  O OOo                 ooooXXXoXoooooXXXXXXX..XXXXo",
"o.XXXXX.oooo  OOOOo                 oooooooooooooooooooo.XXXXX.o",
"o.XXXXXoooooo O OOo                     oooooooooooooooo.XXXXX.o",
"oXXXXXX.ooX o O OOo            O o     ooooooo ooooooooooXXXXo.o",
"oXXXXXX.oXOo  OOOOoo         oo         ooooooooo oooooo.XXXoXXo",
"o.XXXXX.oooo  OOOOoo       o OXo       ooooooooo Xoooooo.XXo.XXo",
"o.XXXXX.ooooo OOOO o          oX        ooooooooXooooooo.XXoXX.o",
"o.XXXXXXXoooo OOOO o                      oooooooooooooo.Xo.XX.o",
"o.XXXXXXoooo  OO Ooo                       ooooooooooooXXX.XXX.o",
"o.XXXXX.oooo  OOOOoo  O                   ooooooooooooooXXXXXX.o",
"oXXXXXX.ooooo OOOOoo   O               ooo XXooooooooooo.XXXXX.o",
"oXXXo.oXX  XX O OOoOOOOOOO               ooooooooooooooo.XXXXXXo",
"oX.oXXXXXXXXoOO OO+OOOOOO OOOO    O       ooooooXXXXXXXXXo.oXXXo",
"          OOOOOOOO+OO++OOOO+OOOO    ooooooooXXXXXXXXXXXXXXXXo.Xo",
"O         OOO OOOO++++++++++++O OOOOOOOO                        ",
"+OO      OOO   OOO+++++++OO+++++++++++++++OOOOOOOOOO           O",
"+OO  ++   O      OO+++++O OO+++++++++++++++++OOOOOOOOOO      OO+",
"      OOOOOOOO  OO+++++++++OO@@+++++++++O++OOOOOOOOOO    ++  OO+",
" .XXXXXXXXXXXXXXXXoooooooO++O@@+++++++++OOOOOOOOOOOOOOOOOO      ",
"XX....XXXXOXXoXoXX oooooooO+O@+++oooooooXXXXXXXXXXXXXXXXXXXXXX. ",
".XXXXX..oooooooooo   o  ooo+ +++ooooooooooooXXXooXXXXXXXXX....XX",
"XXXXXXXXooooooooooooooo     O++ooooo   ooXXXoooooooXXXXX..XXXXX.",
"..XXXXXXooooooooooooooooo   +++oo XX    ooooooooooooooooXXXXXXXX",
"..XXXXXXooooooooooooooooo  ++++oo ooooooooooooooooooooooXXXXXX..",
"..XXXXX.oooooooooooo oooo  ++++oo oooooooooooooX  ooooooXXXXoX..",
"..XXXXX.oooooooooooooooooo ++++oo oooooooooooooooooooooo.XXo.X..",
"..XXXXX.oooooX ooooooooooo +++Ooo oo ooooooooooooooooooo.XX.XX..",
".XXXXXXXoooooX ooooooooooo +++ oo   o oo o ooooooooooooo.XX.XX..",
".XXXXXXXoooooooooooooooooo ++++oo o      XooooooooooooooXXXXXXX.",
".XXXXXX#oooooooooooooooooo ++@+oo          oooooooooooooXXXXXXX.",
"..XXXXXXooooooooooooooooo  ++@+oo o           oooooooooo#XXXXXX.",
"..XXXXX. oooooooooooooo  o @+@+oo  XXXX  oo  oooooooooooXXXXXX..",
".XXXX.ooo oooooooooOOOOOOOo+@++oo        ooo   ooooo    .XX.XX..",
".X .o XXXXooo   OO OOOOOOO++O++OO   OOOO        ooooXXXXoo.XXXX.",
" XXX XXXXXXXXooo  OOOOOOO+++OO+OOOOOOOOO      oooooXXXXXXX o. X.",
"      OOOOOOOOOOOOO++++++++OO+++OOO     ooooooooooXXXXXXXXXXX X ",
"+ +   OOOOOOOOO+++++OOOOOOOOOO++++++++++++++++OOOOOOOOOOOO      ",
"++ + O++OOOOOO+OOO ++O +++++++++++++++++++++OOOOOOOOOOOOOO   + +",
"      OO++++++++++++++++++++++++@@@@@@@@@@@@+O@@@+++++++OO      ",
"XXX O+++O+ooooOo OO ooOOoooooO+Ooooooo   OO++O+++O  OO+O+++O XXX",
"oooooooooooooo oooooooooooooooooo oooooooooO+O+++ooooooooooooooo",
"o ooo o  o         ooo  ooooo ooo    ooooooO+O+++oooooo  o ooo o",
" oooX X                                   o +O++Oo       X Xooo ",
" ooooX                                    o +O++O         Xoooo ",
"+Xoooo                                    oo+O++ o        ooooX+",
"+Xoooo                                     o++O+ o        ooooX+",
"+ooooo       OO                    O      oo++++oo     O  ooooo+",
"+XoooX       OO                    O O     o++++o      O  XoooX+",
"+XoooX       oOOO                           +O++o         XoooX+",
"+.oooX        XoOO+                        o+O++oo        XoooX+",
"+#oooX                                    Xo+O++ o        XoooX+",
"+.ooo.                                    Xo+O++oo        Xoooo+",
"+.oo .                                    Xo+O++Xo        X ooo+",
"+#  o.XXo   oo oo ooo ooXo  oo         O  Xo++++Xo   o  oooo  X+",
"+oooXX. O ooooo  o  O  o   o   OOO OOOOOOXoX+O++oOO OO  OOXXooO+",
"+Xooo.oXXXXXXXXXXXX..XoooooXXooo  ooooXoXooX++++OooooXXXoXooooo+",
"+.XX.OoXoXXXX..XooooXoooooXXXoo oooooooooooX++++OoooooooooooXXX+",
"+XX.XoXXXXXXooooooooooooooooooXXooooooooooo +O+OOXoooooooooooXo+",
"+ ..XXXX.#XooooooooooooooooooXXXoooooooooXXOOO+OOOXooXXXoXXXoX++",
"O ...XXX.XXXXXXXXXXooooXXXXXXoooXXXXO+++++OOO O+OOOOO+O+++OOOO+O",
"OOOOOOOOOOOOOOOOOOOOOOOOOOOOOOOOOOOOOOOOOOOOOOOOOOOOOOOOOOOOOOOO"
};
